<svg width="57" height="85" viewBox="0 0 57 85" fill="none" xmlns="http://www.w3.org/2000/svg">
<path fill-rule="evenodd" clip-rule="evenodd" d="M33.4449 55.5794C46.6101 53.2779 56.616 41.8058 56.616 28C56.616 12.536 44.0622 0 28.5762 0C13.0902 0 0.536377 12.536 0.536377 28C0.536377 41.8059 10.5424 53.278 23.7078 55.5795L26.8449 61.0053C27.615 62.3372 29.5377 62.3372 30.3078 61.0053L33.4449 55.5794Z" fill="#6851FF"/>
<g clip-path="url(#clip0_301_1379)">
<path d="M35.5863 24.7098L30.2457 20.5618C29.777 20.1977 29.2002 20 28.6064 20C28.0126 20 27.4357 20.1977 26.967 20.5618L21.6254 24.7098C21.3044 24.9591 21.0447 25.2783 20.8661 25.6431C20.6875 26.0079 20.5948 26.4087 20.595 26.8148V34.0148C20.595 34.5452 20.806 35.0539 21.1816 35.429C21.5572 35.8041 22.0666 36.0148 22.5978 36.0148H34.6149C35.1461 36.0148 35.6555 35.8041 36.0311 35.429C36.4067 35.0539 36.6177 34.5452 36.6177 34.0148V26.8148C36.6177 25.9918 36.2372 25.2148 35.5863 24.7098Z" fill="white" stroke="white" stroke-width="3" stroke-linecap="round" stroke-linejoin="round"/>
<path d="M32.5822 31C30.369 32.333 26.7819 32.333 24.5708 31" stroke="#6851FF" stroke-width="3" stroke-linecap="round" stroke-linejoin="round"/>
</g>
<ellipse cx="28.5763" cy="77" rx="8.01138" ry="8" fill="#3D1EFE" fill-opacity="0.2"/>
<defs>
<clipPath id="clip0_301_1379">
<rect width="24.0341" height="24" fill="white" transform="translate(16.5593 16)"/>
</clipPath>
</defs>
</svg>
