<svg width="13" height="14" viewBox="0 0 13 14" fill="none" xmlns="http://www.w3.org/2000/svg">
<path fill-rule="evenodd" clip-rule="evenodd" d="M2.57529 0.599976C2.78747 0.599976 2.99095 0.684261 3.14098 0.83429C3.29101 0.984319 3.37529 1.1878 3.37529 1.39998V2.19998H4.17529C4.38747 2.19998 4.59095 2.28426 4.74098 2.43429C4.89101 2.58432 4.97529 2.7878 4.97529 2.99998C4.97529 3.21215 4.89101 3.41563 4.74098 3.56566C4.59095 3.71569 4.38747 3.79998 4.17529 3.79998H3.37529V4.59998C3.37529 4.81215 3.29101 5.01563 3.14098 5.16566C2.99095 5.31569 2.78747 5.39998 2.57529 5.39998C2.36312 5.39998 2.15964 5.31569 2.00961 5.16566C1.85958 5.01563 1.77529 4.81215 1.77529 4.59998V3.79998H0.975293C0.76312 3.79998 0.559637 3.71569 0.409608 3.56566C0.259578 3.41563 0.175293 3.21215 0.175293 2.99998C0.175293 2.7878 0.259578 2.58432 0.409608 2.43429C0.559637 2.28426 0.76312 2.19998 0.975293 2.19998H1.77529V1.39998C1.77529 1.1878 1.85958 0.984319 2.00961 0.83429C2.15964 0.684261 2.36312 0.599976 2.57529 0.599976ZM2.57529 8.59998C2.78747 8.59998 2.99095 8.68426 3.14098 8.83429C3.29101 8.98432 3.37529 9.1878 3.37529 9.39997V10.2H4.17529C4.38747 10.2 4.59095 10.2843 4.74098 10.4343C4.89101 10.5843 4.97529 10.7878 4.97529 11C4.97529 11.2121 4.89101 11.4156 4.74098 11.5657C4.59095 11.7157 4.38747 11.8 4.17529 11.8H3.37529V12.6C3.37529 12.8121 3.29101 13.0156 3.14098 13.1657C2.99095 13.3157 2.78747 13.4 2.57529 13.4C2.36312 13.4 2.15964 13.3157 2.00961 13.1657C1.85958 13.0156 1.77529 12.8121 1.77529 12.6V11.8H0.975293C0.76312 11.8 0.559637 11.7157 0.409608 11.5657C0.259578 11.4156 0.175293 11.2121 0.175293 11C0.175293 10.7878 0.259578 10.5843 0.409608 10.4343C0.559637 10.2843 0.76312 10.2 0.975293 10.2H1.77529V9.39997C1.77529 9.1878 1.85958 8.98432 2.00961 8.83429C2.15964 8.68426 2.36312 8.59998 2.57529 8.59998ZM8.17529 0.599976C8.35184 0.599919 8.52346 0.658266 8.66338 0.765925C8.80331 0.873584 8.9037 1.02451 8.94889 1.19518L9.89209 4.75997L12.5753 6.30718C12.6969 6.37739 12.7979 6.47838 12.8681 6.59999C12.9383 6.7216 12.9753 6.85955 12.9753 6.99998C12.9753 7.1404 12.9383 7.27835 12.8681 7.39996C12.7979 7.52157 12.6969 7.62256 12.5753 7.69278L9.89209 9.24078L8.94809 12.8048C8.90281 12.9753 8.80245 13.126 8.66261 13.2336C8.52277 13.3411 8.35131 13.3994 8.17489 13.3994C7.99848 13.3994 7.82701 13.3411 7.68718 13.2336C7.54734 13.126 7.44697 12.9753 7.40169 12.8048L6.45849 9.23997L3.77529 7.69278C3.65369 7.62256 3.55271 7.52157 3.4825 7.39996C3.41229 7.27835 3.37533 7.1404 3.37533 6.99998C3.37533 6.85955 3.41229 6.7216 3.4825 6.59999C3.55271 6.47838 3.65369 6.37739 3.77529 6.30718L6.45849 4.75918L7.40249 1.19518C7.44766 1.02464 7.54792 0.873815 7.68769 0.766169C7.82745 0.658523 7.99888 0.600095 8.17529 0.599976Z" fill="white"/>
</svg>
